<?xml version="1.0" encoding="UTF-8" standalone="no"?>
<svg
   xmlns:dc="http://purl.org/dc/elements/1.1/"
   xmlns:cc="http://creativecommons.org/ns#"
   xmlns:rdf="http://www.w3.org/1999/02/22-rdf-syntax-ns#"
   xmlns:svg="http://www.w3.org/2000/svg"
   xmlns="http://www.w3.org/2000/svg"
   xmlns:sodipodi="http://sodipodi.sourceforge.net/DTD/sodipodi-0.dtd"
   xmlns:inkscape="http://www.inkscape.org/namespaces/inkscape"
   id="Layer_1"
   height="33"
   viewBox="0 0 1.546875 1.546875"
   width="33"
   data-name="Layer 1"
   version="1.1"
   sodipodi:docname="database_icon_white.svg"
   inkscape:version="1.0.2-2 (e86c870879, 2021-01-15)">
  <metadata
     id="metadata13">
    <rdf:RDF>
      <cc:Work
         rdf:about="">
        <dc:format>image/svg+xml</dc:format>
        <dc:type
           rdf:resource="http://purl.org/dc/dcmitype/StillImage" />
        <dc:title></dc:title>
      </cc:Work>
    </rdf:RDF>
  </metadata>
  <defs
     id="defs11" />
  <sodipodi:namedview
     pagecolor="#ffffff"
     bordercolor="#666666"
     borderopacity="1"
     objecttolerance="10"
     gridtolerance="10"
     guidetolerance="10"
     inkscape:pageopacity="0"
     inkscape:pageshadow="2"
     inkscape:window-width="1920"
     inkscape:window-height="1017"
     id="namedview9"
     showgrid="false"
     inkscape:snap-bbox="true"
     inkscape:zoom="13.28125"
     inkscape:cx="25.345447"
     inkscape:cy="18.972854"
     inkscape:window-x="-8"
     inkscape:window-y="-8"
     inkscape:window-maximized="1"
     inkscape:current-layer="Layer_1" />
  <g
     id="g18"
     transform="matrix(0.15458545,0,0,0.15458545,-1.0815879,-1.0815879)"
     style="fill:#deddda">
    <path
       d="M 9.1257754,10.403209 H 12.638717 V 9.764492 a 0.31935829,0.31935829 0 0 1 0.638716,0 v 0.638717 H 13.91615 V 9.764492 a 0.31935829,0.31935829 0 0 1 0.638716,0 v 0.638717 h 0.319359 a 0.9580751,0.9580751 0 0 0 0,-1.9161502 H 9.1257754 a 0.9580751,0.9580751 0 0 0 0,1.9161502 z"
       id="path2"
       style="stroke-width:0.319358;fill:#deddda" />
    <path
       d="m 9.1257754,12.958075 h 3.5129416 v -0.638717 a 0.31935829,0.31935829 0 0 1 0.638716,0 v 0.638717 h 0.638717 v -0.638717 a 0.31935829,0.31935829 0 0 1 0.638716,0 v 0.638717 h 0.319359 a 0.958075,0.958075 0 0 0 0,-1.91615 H 9.1257754 a 0.958075,0.958075 0 0 0 0,1.91615 z"
       id="path4"
       style="stroke-width:0.319358;fill:#deddda" />
    <path
       d="m 9.1257754,15.512941 h 3.5129416 v -0.638716 a 0.31935829,0.31935829 0 0 1 0.638716,0 v 0.638716 h 0.638717 v -0.638716 a 0.31935829,0.31935829 0 0 1 0.638716,0 v 0.638716 h 0.319359 a 0.958075,0.958075 0 0 0 0,-1.91615 H 9.1257754 a 0.958075,0.958075 0 0 0 0,1.91615 z"
       id="path6"
       style="stroke-width:0.319358;fill:#deddda" />
  </g>
</svg>
